<?xml version="1.0" encoding="UTF-8" standalone="no"?>
<svg
   width="1885.5237"
   height="720"
   viewBox="0 0 1885.5237 720"
   version="1.1"
   id="svg8"
   sodipodi:docname="color-1.svg"
   inkscape:version="1.1 (c68e22c387, 2021-05-23)"
   xmlns:inkscape="http://www.inkscape.org/namespaces/inkscape"
   xmlns:sodipodi="http://sodipodi.sourceforge.net/DTD/sodipodi-0.dtd"
   xmlns="http://www.w3.org/2000/svg"
   xmlns:svg="http://www.w3.org/2000/svg">
  <defs
     id="defs12" />
  <sodipodi:namedview
     id="namedview10"
     pagecolor="#ffffff"
     bordercolor="#666666"
     borderopacity="1.0"
     inkscape:pageshadow="2"
     inkscape:pageopacity="0.0"
     inkscape:pagecheckerboard="0"
     showgrid="false"
     fit-margin-top="0"
     fit-margin-left="0"
     fit-margin-right="0"
     fit-margin-bottom="0"
     inkscape:zoom="0.34074519"
     inkscape:cx="743.95767"
     inkscape:cy="382.98413"
     inkscape:window-width="1920"
     inkscape:window-height="1017"
     inkscape:window-x="1912"
     inkscape:window-y="-8"
     inkscape:window-maximized="1"
     inkscape:current-layer="g6" />
  <g
     fill="none"
     fill-rule="evenodd"
     id="g6"
     transform="translate(-0.14437839,1.4445061e-5)">
    <path
       fill="#192b8d"
       d="M 360.08136,-1.4445061e-5 C 373.44998,13.292298 386.82385,26.584611 400.18984,39.879554 c 27.97384,27.826504 55.9398,55.663533 83.93995,83.466356 1.43395,1.42343 3.1468,2.57058 5.2622,4.27817 -3.64407,3.7309 -6.61458,6.79876 -9.61667,9.83768 -12.88712,13.03972 -25.72688,26.12681 -38.69031,39.09287 -12.47667,12.47667 -25.08227,24.82442 -37.63261,37.22742 -0.41308,0.41045 -0.83406,0.81038 -1.23398,1.22872 -6.41462,6.69089 -6.42778,6.70404 -13.13182,-0.0368 -9.60614,-9.65877 -19.19387,-19.33858 -28.44481,-28.6632 -55.53724,55.3899 -110.69034,110.40092 -166.20653,165.76977 11.94256,11.8189 24.05351,23.69568 36.04869,35.69086 40.0427,40.0427 80.0354,80.13801 120.09915,120.15966 2.15224,2.14961 3.19152,3.50199 0.43939,6.22781 -32.7756,32.50197 -65.42491,65.13023 -98.11105,97.71639 -0.29995,0.29732 -0.69198,0.50254 -1.48657,1.07349 C 167.79275,528.27206 84.139586,443.57435 0.14437839,358.53196 1.2915376,357.27956 2.2781997,356.12451 3.3490571,355.05102 80.221879,278.15715 157.10523,201.26854 233.98594,124.3773 274.63642,83.721558 315.28164,43.063184 355.91107,2.3837613 356.56622,1.7259866 356.95299,0.79983968 357.46605,-1.4445061e-5 Z M 1077.3898,210.20796 c 26.5214,17.36263 47.4255,39.71644 60.0916,69.15318 0.7788,1.8102 1.3524,3.70722 2.1338,5.88314 -1.2603,0.20259 -2.068,0.43413 -2.881,0.44465 -22.7827,0.2789 -45.5654,0.50254 -68.3481,0.84459 -2.5416,0.0395 -4.1887,-0.67356 -5.8884,-2.68373 -10.4112,-12.3188 -21.2645,-24.17716 -35.9671,-31.65475 -10.5796,-5.3806 -21.8697,-8.35111 -33.57019,-9.75348 -17.7836,-2.12856 -35.60929,-2.91 -52.96928,2.52322 -38.7824,12.14252 -64.6619,38.06411 -78.39097,75.87827 -15.92341,43.86831 -3.36518,92.70677 31.42585,123.86951 20.6436,18.49137 44.88392,29.1289 72.74989,30.27869 39.0429,1.6076 72.1553,-11.63998 98.5689,-40.72678 5.9252,-6.52513 10.6112,-15.54191 11.9162,-22.17491 H 933.1871 v -58.35514 h 223.4724 c 1.0972,12.25829 0.4052,24.51132 -1.8602,36.61963 -10.1429,54.1796 -40.2005,94.4854 -87.0131,122.53292 -33.7596,20.22789 -70.58183,29.50515 -109.88255,25.3638 -76.91492,-8.10379 -130.99716,-48.18332 -157.10819,-120.85428 -22.82478,-63.52789 -9.97713,-122.82234 33.31498,-174.5629 31.2443,-37.34056 72.1421,-58.06046 120.50697,-63.09902 44.42873,-4.63073 85.43709,6.03574 122.77239,30.47339 z m 747.0369,-3.3436 c 25.7242,17.69414 45.3996,40.70574 59.2128,68.71115 0.5499,1.12085 1.3472,2.1233 2.0286,3.181 v 0.8709 c -3.1494,0.1105 -6.3015,0.32099 -9.4509,0.31047 -20.191,-0.071 -40.3795,-0.26048 -60.5705,-0.22365 -2.9232,0.005 -4.7649,-0.96035 -6.6225,-3.09417 -9.9666,-11.44528 -21.1277,-21.36452 -35.1778,-27.73704 -11.2006,-5.08329 -23.0221,-7.61178 -35.0699,-9.29305 -18.7624,-2.61794 -37.0696,-1.05507 -54.3427,7.23816 -34.8963,16.7522 -60.6863,42.33701 -72.2369,79.73545 -11.2874,36.55123 -3.2099,70.56082 19.8096,100.41064 25.79,33.4439 60.6626,48.53851 102.8286,45.00758 22.6617,-1.89965 42.808,-11.02694 60.2653,-25.70058 4.3177,-3.62828 8.1906,-7.78016 12.3951,-11.54789 0.9709,-0.87089 2.4627,-1.65496 3.7125,-1.65233 23.3852,0.0263 46.7731,0.16839 70.1583,0.31047 0.6841,0.005 1.3682,0.23154 3.5125,0.61568 -5.8752,9.72191 -10.7165,19.29911 -16.9916,27.8265 -28.0923,38.18514 -66.0564,60.82049 -112.4585,69.52153 -29.8077,5.59109 -59.276,3.59671 -88.0129,-5.91208 -27.5397,-9.11149 -51.4669,-24.28241 -71.7079,-45.16281 -26.2163,-27.03718 -43.3264,-59.07081 -48.6307,-96.22193 -9.9587,-69.70834 12.8714,-127.40571 67.9429,-171.48977 29.5788,-23.67727 64.0041,-35.53826 101.9762,-36.83013 39.2139,-1.3366 75.1047,8.89312 107.4304,31.1259 z m -382.0583,-17.24738 c 38.4509,18.09407 66.9063,46.51257 85.8239,84.50564 0.321,0.64462 0.6078,1.31292 0.8393,1.99701 0.082,0.24206 -0.045,0.55516 -0.1474,1.49446 -10.0008,0 -19.8384,0.0342 -29.6761,-0.008 -13.0713,-0.0605 -26.1426,-0.30784 -39.2113,-0.18681 -3.1231,0.0316 -5.1464,-1.08401 -7.0487,-3.2652 -10.3665,-11.88467 -22.046,-21.95126 -36.7986,-28.28431 -13.2449,-5.68844 -27.1055,-7.94066 -41.2714,-9.43249 -20.4804,-2.16276 -39.1376,3.2994 -56.6475,13.23443 -24.2825,13.77906 -43.4947,32.77297 -55.7714,57.97627 -18.8019,38.61138 -13.9528,75.96509 8.9746,111.01133 19.0202,29.07101 46.8415,45.76797 81.1958,50.59077 29.3999,4.1282 56.3686,-3.19152 80.3721,-20.59887 6.5252,-4.73335 12.1689,-10.66648 18.352,-15.88921 1.2892,-1.08927 3.1731,-2.07331 4.7912,-2.08646 19.8911,-0.14734 39.7848,-0.14734 59.6759,-0.0684 3.7441,0.0158 7.4855,0.54727 11.8268,0.88931 -0.5999,1.68127 -1.0182,3.27572 -1.7181,4.73598 -7.646,15.94709 -17.8178,30.08662 -30.2839,42.65012 -20.1542,20.30682 -43.9473,34.76208 -70.9871,43.73412 -34.4595,11.43213 -69.4926,13.26601 -104.4178,2.76792 -69.119,-20.77779 -112.3716,-67.10092 -127.6293,-137.09605 -12.2583,-56.23185 1.7654,-107.73561 38.9797,-151.90124 30.4024,-36.08553 69.5952,-56.91594 116.7182,-62.11762 32.7388,-3.6125 64.233,1.31029 94.0591,15.3472 z"
       id="path2"
       style="stroke-width:18.2145" />
    <path
       fill="#fa2214"
       d="m 504.14193,145.70736 c 71.8027,71.26595 144.01058,142.93709 216.04218,214.42931 C 600.26387,480.09374 480.55413,599.84295 360.4313,719.99999 329.92634,690.02651 299.23457,659.86885 268.25074,629.4244 357.8081,540.21436 447.24441,451.1306 537.3122,361.41275 c -15.57348,-14.70784 -30.21028,-28.5369 -45.37594,-42.8606 -36.33547,36.075 -73.76023,73.23138 -110.38776,109.59843 -27.19241,-26.6925 -54.0954,-53.09821 -81.00101,-79.50392 67.95865,-67.74028 135.66209,-135.22534 203.59444,-202.9393"
       id="path4"
       style="stroke-width:18.2145" />
  </g>
</svg>
